<svg xmlns="http://www.w3.org/2000/svg" viewBox="0 0 960 720" role="img" aria-labelledby="t d"><title id="t">Word na Prática — OYAG Academy</title><desc id="d">Capa do curso Word na Prática, Nível 1 gratuito</desc><defs><linearGradient id="g" x1="0" y1="0" x2="1" y2="1"><stop stop-color="#020914"/><stop offset=".6" stop-color="#0b2d60"/><stop offset="1" stop-color="#126b89"/></linearGradient></defs><rect width="960" height="720" fill="url(#g)"/><g transform="translate(610 205) scale(.84)"><rect width="330" height="370" rx="24" fill="#f7fbff" stroke="#3bdcff" stroke-width="4"/><rect x="36" y="52" width="178" height="20" rx="10" fill="#1677ff"/><rect x="36" y="104" width="250" height="12" rx="6" fill="#8ca7bb"/><rect x="36" y="138" width="228" height="12" rx="6" fill="#8ca7bb"/><rect x="36" y="172" width="262" height="12" rx="6" fill="#8ca7bb"/><rect x="36" y="218" width="110" height="92" rx="12" fill="#dceaff"/><rect x="168" y="218" width="130" height="14" rx="7" fill="#8ca7bb"/><rect x="168" y="250" width="112" height="12" rx="6" fill="#8ca7bb"/><rect x="168" y="280" width="124" height="12" rx="6" fill="#8ca7bb"/></g><text x="58" y="86" fill="#fff" font-size="26" font-family="Arial,sans-serif" letter-spacing="8">OYAG ACADEMY</text><text x="58" y="196" fill="#fff" font-size="76" font-weight="800" font-family="Arial,sans-serif">Word</text><text x="58" y="266" fill="#62e8e1" font-size="62" font-weight="800" font-family="Arial,sans-serif">na prática</text><text x="58" y="318" fill="#e7f6ff" font-size="21" font-weight="700" font-family="Arial,sans-serif">DOCUMENTOS · FORMATAÇÃO</text><text x="58" y="348" fill="#9ed9f3" font-size="20" font-family="Arial,sans-serif">PRODUTIVIDADE · ORGANIZAÇÃO</text><g transform="translate(58 390)"><rect width="285" height="76" rx="38" fill="none" stroke="#39d4ff" stroke-width="4"/><text x="142" y="49" text-anchor="middle" fill="#fff" font-size="27" font-weight="700" font-family="Arial,sans-serif">Comece grátis</text></g><g transform="translate(635 48)"><rect width="265" height="82" rx="20" fill="#0a2947" stroke="#42e8ff" stroke-width="3"/><text x="132" y="31" text-anchor="middle" fill="#c9f4ff" font-size="19" font-family="Arial,sans-serif">NÍVEL 1</text><text x="132" y="61" text-anchor="middle" fill="#fff" font-size="28" font-weight="800" font-family="Arial,sans-serif">GRATUITO</text></g></svg>